<?xml version="1.0" standalone="no"?>
<!DOCTYPE svg PUBLIC "-//W3C//DTD SVG 20010904//EN"
 "http://www.w3.org/TR/2001/REC-SVG-20010904/DTD/svg10.dtd">
<svg version="1.0" xmlns="http://www.w3.org/2000/svg"
 width="512.000000pt" height="512.000000pt" viewBox="0 0 512.000000 512.000000"
 preserveAspectRatio="xMidYMid meet">
<metadata>
Created by potrace 1.11, written by Peter Selinger 2001-2013
</metadata>
<g transform="translate(0.000000,512.000000) scale(0.100000,-0.100000)"
fill="#000000" stroke="none">
<path d="M3195 4780 c-40 -16 -44 -31 -45 -195 -1 -88 -1 -176 -1 -196 2 -72
76 -105 125 -56 23 23 24 27 22 221 l-1 197 -25 19 c-27 21 -44 23 -75 10z"/>
<path d="M2560 4487 c-13 -7 -31 -24 -38 -37 -13 -23 -11 -34 24 -124 23 -58
48 -104 60 -112 40 -27 64 -25 95 6 37 36 36 44 -22 177 -11 24 -19 47 -19 51
0 13 -32 39 -55 46 -11 3 -31 0 -45 -7z"/>
<path d="M3821 4485 c-16 -8 -36 -42 -62 -105 -51 -122 -51 -148 3 -176 38
-20 80 -5 98 34 37 79 70 167 70 187 0 51 -62 86 -109 60z"/>
<path d="M1902 4244 c-34 -14 -48 -48 -37 -86 4 -13 67 -83 140 -155 142 -142
159 -151 207 -113 32 25 40 63 19 92 -30 43 -259 265 -279 270 -10 3 -33 0
-50 -8z"/>
<path d="M4494 4252 c-11 -1 -82 -65 -157 -140 -130 -131 -136 -139 -132 -172
8 -67 70 -90 122 -46 60 51 248 246 255 266 18 49 -31 102 -88 92z"/>
<path d="M3137 4124 c-1 -1 -29 -4 -62 -8 -33 -3 -71 -9 -85 -12 -14 -3 -38
-8 -54 -10 -47 -9 -196 -64 -261 -96 -182 -91 -366 -253 -473 -416 -60 -91
-126 -219 -138 -268 -4 -15 -16 -26 -33 -30 -88 -20 -153 -37 -201 -54 -170
-57 -340 -164 -467 -291 -236 -237 -356 -517 -368 -859 -2 -47 -4 -91 -4 -97
-1 -9 -34 -12 -124 -13 -120 0 -137 -1 -228 -20 -281 -57 -525 -289 -609 -580
-30 -102 -35 -289 -10 -392 36 -153 97 -270 202 -383 62 -66 202 -175 227
-175 6 0 29 -10 51 -21 93 -49 171 -61 408 -66 193 -5 225 -3 247 11 14 9 27
27 30 39 6 22 11 23 81 23 69 0 75 -2 80 -22 15 -57 -73 -54 1466 -53 1516 0
1470 -1 1628 51 270 88 491 293 603 558 20 47 38 96 41 110 28 131 33 177 31
289 -6 374 -218 704 -558 867 -73 35 -203 79 -250 83 -4 1 6 25 21 55 149 279
167 686 44 995 -114 287 -326 519 -597 654 -79 39 -189 82 -235 92 -8 2 -35 8
-60 14 -68 15 -155 24 -253 25 -48 1 -89 1 -90 0z"/>
<path d="M1659 3593 c-23 -6 -41 -45 -37 -78 4 -35 33 -57 127 -95 72 -30 116
-37 137 -22 21 14 35 53 29 82 -8 34 -26 47 -130 88 -78 31 -93 34 -126 25z"/>
<path d="M4650 3564 c-47 -20 -92 -42 -101 -50 -25 -23 -28 -60 -8 -94 25 -41
63 -40 170 6 119 51 148 96 94 149 -32 33 -54 31 -155 -11z"/>
<path d="M4693 2962 c-45 -7 -68 -76 -39 -115 8 -10 27 -21 42 -25 35 -10 351
-8 380 2 27 8 48 57 40 91 -11 43 -37 49 -226 50 -96 0 -185 -1 -197 -3z"/>
<path d="M4580 2392 c-32 -10 -50 -36 -50 -72 0 -48 14 -59 128 -104 98 -39
122 -40 155 -3 26 30 21 65 -14 98 -17 16 -37 29 -44 29 -7 0 -34 10 -60 21
-63 28 -97 37 -115 31z"/>
</g>
</svg>
